# xmcd CD database file
#
# Track frame offsets:
#	182
#	12482
#	34807
#	48295
#	61495
#	78882
#	91595
#	112195
#	127320
#	165632
#
# Disc length: 2472 seconds
#
# Revision: 1
# Processed by: cddbd v1.5.2PL0 Copyright (c) Steve Scherf et al.
# Submitted via: jetAudio 5
#
DISCID=7f09a60a
DTITLE=Ahmad Jamal - The Ahmad Jamal Trio
DYEAR=1989
DGENRE=
TTITLE0=Autumn leaves
TTITLE1=Crazy he calls me
TTITLE2=They can't take that away
TTITLE3=It's easy to remember
TTITLE4=Squeeze me
TTITLE5=Something to remember you by
TTITLE6=Poinciana (the song of the Tree)
TTITLE7=The donkey serenade
TTITLE8=Love for sale
TTITLE9=Pavanne
EXTD=YEAR: 1989
EXTT0=
EXTT1=
EXTT2=
EXTT3=
EXTT4=
EXTT5=
EXTT6=
EXTT7=
EXTT8=
EXTT9=
PLAYORDER=
